<svg xmlns="http://www.w3.org/2000/svg" viewBox="0 0 484.68 107.24"><defs><style>.cls-1{fill:#fff;}</style></defs><title>logobookstore</title><g id="Layer_2" data-name="Layer 2"><g id="Layer_1-2" data-name="Layer 1"><path class="cls-1" d="M437.35,8A49.59,49.59,0,0,1,477.48,28.4l7.2-3.64a57.64,57.64,0,0,0-94.34-.49l7.23,3.64A49.61,49.61,0,0,1,437.35,8Z"/><path class="cls-1" d="M462.83,35.78l7.3-3.68A41.54,41.54,0,0,0,405,31.63l7.3,3.69a33.52,33.52,0,0,1,50.58.46Z"/><path class="cls-1" d="M418.25,38.33l7.68,3.88a19.13,19.13,0,0,1,23.35.4l7.6-3.83a27.14,27.14,0,0,0-38.63-.45Z"/><path class="cls-1" d="M482.23,52.77c-.08-1.43-.51-1.76-1.89-1.41l-4.9,1.25c-.13-2.48-.27-4.85-.38-7.22-.1-2.1-.75-2.86-2.87-2.78a76.52,76.52,0,0,0-9,.68c-7,1.08-13.65,3.23-19.46,7.47-2.14,1.56-4.17,3.28-6.3,5l-.54-.49a45,45,0,0,0-11.32-7.88,52.55,52.55,0,0,0-23.16-4.73c-1.53,0-2.24.82-2.32,2.35-.06,1.18-.12,2.37-.19,3.56s-.16,2.64-.25,4.07c-1.68-.43-3.21-.83-4.75-1.21s-1.95-.11-2,1.5q-.65,11.88-1.26,23.75l-1.11,20.69c-.08,1.37.38,2,1.72,2.12l6,.74,30.65,3.9c1.56.2,3.1.18,4.3,1.71.9,1.16,2.55,1.44,4.05,1.44,2.26,0,4.4-.4,5.79-2.52.1-.17.43-.25.66-.28l17.6-2.25L483,99.43a1.57,1.57,0,0,0,1.59-1.88c-.12-2.69-.26-5.38-.4-8.06Q483.21,71.13,482.23,52.77ZM424.87,97.19c-10.13-3.28-20.25-1.93-30.44,0a6.06,6.06,0,0,1,0-.73l2.13-37c.09-1.59.18-3.17.24-4.75,0-.51.17-.79.7-.86.7-.1,1.38-.25,2.18-.4-.08,1.65-.15,3.2-.23,4.74q-.48,8.66-1,17.3-.37,7-.74,13.91c-.1,2,.68,2.76,2.64,2.71a55.7,55.7,0,0,1,21.32,3.36c1.1.42,2.16,1,3.24,1.42Zm10.59,1.15v.92c-9.61-8.67-21.09-11.14-33.24-11.38,0-1.12-.05-2.19,0-3.25q.63-12.21,1.31-24.42.36-6.36.68-12.72c0-.49.16-.7.7-.67,11.41.54,21.63,4,29.88,12.26a2.07,2.07,0,0,1,.67,1.63Q435.45,79.52,435.46,98.34Zm4.32.84c0-.43-.08-.66-.08-.9q0-18.9,0-37.8a2.07,2.07,0,0,1,.56-1.3A39.13,39.13,0,0,1,461.14,48c2.8-.53,5.65-.78,8.48-1.15.36,0,.73,0,1.25,0,.74,13.68,1.47,27.29,2.22,41C460.82,88.12,449.33,90.57,439.78,99.18Zm12-2.73,0-.22c1.2-.45,2.39-1,3.61-1.34a57.24,57.24,0,0,1,19.41-2.69c2,0,2.79-.7,2.68-2.67q-.62-11.82-1.28-23.66c-.23-4.12-.44-8.25-.66-12.56.88.16,1.66.26,2.42.45.19.05.4.43.42.66.18,2.6.33,5.2.48,7.8q.82,14.55,1.66,29.08c.1,1.86.19,3.72.29,5.66C471.07,95.09,461.46,93.74,451.78,96.45Z"/><path class="cls-1" d="M431.76,62c-6.21-6.13-13.94-8.68-22.39-9.58-.92,0-1.48.37-1.54,1.09s.46,1.18,1.37,1.29c1.3.15,2.59.27,3.87.51,6.11,1.15,11.71,3.42,16.34,7.7.35.33.68.69,1,1a1.17,1.17,0,0,0,1.68,0,1.14,1.14,0,0,0,0-1.67C432,62.23,431.88,62.11,431.76,62Z"/><path class="cls-1" d="M424.21,65.06a39,39,0,0,0-15.66-4.29,1.08,1.08,0,0,0-1,1.12c0,.73.43,1.16,1.3,1.24,1.1.11,2.2.17,3.28.37a35.33,35.33,0,0,1,18,8.5,1.17,1.17,0,0,0,1.68.15c.61-.48.57-1.26-.1-1.9A30.28,30.28,0,0,0,424.21,65.06Z"/><path class="cls-1" d="M431.22,78.11a38.66,38.66,0,0,0-21.5-9,11.41,11.41,0,0,0-1.44,0,1.1,1.1,0,0,0-1,1.22,1.07,1.07,0,0,0,1.07,1.1l.42,0a36.17,36.17,0,0,1,19.65,7.33c.61.45,1.14,1,1.75,1.48a1.08,1.08,0,0,0,1.59-.17,1.1,1.1,0,0,0,0-1.54A5.44,5.44,0,0,0,431.22,78.11Z"/><path class="cls-1" d="M431,86.5c-6.53-5.22-14.09-7.59-22.31-8.08-.15,0-.26,0-.37,0-.93,0-1.47.39-1.49,1.13s.49,1.17,1.41,1.23c.76,0,1.52.09,2.28.16a34.83,34.83,0,0,1,19.25,7.62c.7.57,1.42.59,1.88.06s.37-1.23-.32-1.85Z"/><path class="cls-1" d="M444.55,64a28.18,28.18,0,0,1,13.08-7.35c2.72-.72,5.55-1,8.33-1.48a1.28,1.28,0,0,0,1.24-1.12,1.22,1.22,0,0,0-1.43-1.24,42.38,42.38,0,0,0-9.41,1.71,31.58,31.58,0,0,0-13.44,7.78,1.24,1.24,0,0,0-.17,1.8A1.19,1.19,0,0,0,444.55,64Z"/><path class="cls-1" d="M444.81,72a32.91,32.91,0,0,1,11.29-6.41,34,34,0,0,1,10-2c.95,0,1.46-.46,1.47-1.18s-.53-1.2-1.44-1.17A36.68,36.68,0,0,0,454,63.84a33.84,33.84,0,0,0-10.73,6.37c-.67.61-.76,1.32-.27,1.85A1.19,1.19,0,0,0,444.81,72Z"/><path class="cls-1" d="M445,79.87A33.66,33.66,0,0,1,459.74,73a55.19,55.19,0,0,1,6.81-.75c1-.09,1.54-.48,1.52-1.22s-.52-1.13-1.39-1.14a33.51,33.51,0,0,0-11,1.74A34.93,34.93,0,0,0,443.52,78a1.24,1.24,0,0,0-.35,1.84A1.19,1.19,0,0,0,445,79.87Z"/><path class="cls-1" d="M467,78.92h-.85a40.18,40.18,0,0,0-15.67,3.71,29.49,29.49,0,0,0-6.75,4.21,1.17,1.17,0,0,0-.26,1.72,1.21,1.21,0,0,0,1.74.1l.2-.16a34,34,0,0,1,16.93-6.87c1.57-.22,3.16-.25,4.74-.35.93-.06,1.43-.49,1.4-1.24S468,78.92,467,78.92Z"/><path class="cls-1" d="M10.75,14.65Q8.4,11.85,10.3,10c.42-.66,1.34-.92,2.75-.77a7.46,7.46,0,0,1,4.2,2.12V6.07A8.78,8.78,0,0,0,11.56,3.9a6.91,6.91,0,0,0-4.7,1.89,6.8,6.8,0,0,0-2.21,4,7.82,7.82,0,0,0,.86,4.88H2.89L0,19.88H17.16L20,14.65Z"/><polygon class="cls-1" points="3.43 83.2 14.81 83.2 14.81 24.94 3.43 30.99 3.43 83.2"/><path class="cls-1" d="M90,41.56q-8.4,0-13.28,5.74t-4.88,15a17.28,17.28,0,0,0,2.71,9.93H57.35A7.28,7.28,0,0,1,52.66,71a5.68,5.68,0,0,1-1.72-4.25V43.1l-11.29,6V74.8q0,8.58-5.78,11.2T20,84.28v9.94q9.75,5.32,18.88,1.35Q47.33,92,50,82.21a19.87,19.87,0,0,0,6.32,1H89.78q8.13,0,12.33-4.79a17.89,17.89,0,0,0,4.29-12V58.27q0-7.68-4.47-12.19T90,41.56ZM95,66.49q0,5.78-5.33,5.78a5.52,5.52,0,0,1-5-2.75A14.26,14.26,0,0,1,83,62a12.58,12.58,0,0,1,1.81-7.18A5.86,5.86,0,0,1,90,52.13q5.06,0,5.06,6Z"/><path class="cls-1" d="M96.91,35.15a5.63,5.63,0,0,0,4.29-1.67,6.1,6.1,0,0,0,1.58-4.38,5.82,5.82,0,0,0-1.58-4.25,5.71,5.71,0,0,0-4.29-1.62,5.93,5.93,0,0,0-4.29,1.62A5.69,5.69,0,0,0,91,29.1a6,6,0,0,0,1.63,4.42A5.83,5.83,0,0,0,96.91,35.15Z"/><path class="cls-1" d="M83.09,35.15a5.63,5.63,0,0,0,4.29-1.67A6.1,6.1,0,0,0,89,29.1a5.82,5.82,0,0,0-1.58-4.25,5.71,5.71,0,0,0-4.29-1.62,5.86,5.86,0,0,0-4.33,1.62,5.74,5.74,0,0,0-1.63,4.25,6,6,0,0,0,1.63,4.42A5.83,5.83,0,0,0,83.09,35.15Z"/><polygon class="cls-1" points="118.14 83.2 129.52 83.2 129.52 24.94 118.14 30.99 118.14 83.2"/><path class="cls-1" d="M182.72,32.17A5.66,5.66,0,0,0,187,30.5a6.15,6.15,0,0,0,1.58-4.38A5.86,5.86,0,0,0,187,21.87a5.74,5.74,0,0,0-4.29-1.62,5.93,5.93,0,0,0-4.34,1.58,5.71,5.71,0,0,0-1.62,4.29,6,6,0,0,0,1.62,4.42A5.84,5.84,0,0,0,182.72,32.17Z"/><path class="cls-1" d="M168.81,32.17a5.66,5.66,0,0,0,4.29-1.67,6.15,6.15,0,0,0,1.58-4.38,5.86,5.86,0,0,0-1.58-4.25,5.74,5.74,0,0,0-4.29-1.62,5.94,5.94,0,0,0-4.34,1.58,5.71,5.71,0,0,0-1.62,4.29,6,6,0,0,0,1.62,4.42A5.85,5.85,0,0,0,168.81,32.17Z"/><path class="cls-1" d="M221.37,91.42A5.86,5.86,0,0,0,217,93a5.74,5.74,0,0,0-1.63,4.25,6,6,0,0,0,1.63,4.43,5.86,5.86,0,0,0,4.33,1.62,5.63,5.63,0,0,0,4.29-1.67,6.07,6.07,0,0,0,1.58-4.38A5.82,5.82,0,0,0,225.66,93,5.71,5.71,0,0,0,221.37,91.42Z"/><path class="cls-1" d="M244.13,35.15a5.63,5.63,0,0,0,4.29-1.67A6.1,6.1,0,0,0,250,29.1a5.82,5.82,0,0,0-1.58-4.25,5.71,5.71,0,0,0-4.29-1.62,5.86,5.86,0,0,0-4.33,1.62,5.74,5.74,0,0,0-1.63,4.25,6,6,0,0,0,1.63,4.42A5.83,5.83,0,0,0,244.13,35.15Z"/><path class="cls-1" d="M258,35.15a5.63,5.63,0,0,0,4.29-1.67,6.1,6.1,0,0,0,1.58-4.38,5.82,5.82,0,0,0-1.58-4.25A5.71,5.71,0,0,0,258,23.23a5.93,5.93,0,0,0-4.29,1.62A5.69,5.69,0,0,0,252,29.1a6,6,0,0,0,1.63,4.42A5.83,5.83,0,0,0,258,35.15Z"/><path class="cls-1" d="M353.42,41.56q-7.5,0-12,4.52T337,58.27v7.5q0,3.53-1.44,5c-1,1-2.59,1.49-4.88,1.49H320.45c-2.29,0-3.92-.5-4.92-1.49s-1.49-2.66-1.49-5v-.36q0-11.65-9-17.8a23.47,23.47,0,0,0-12.1-4.24l16.44-18.43H297.87L279.54,45.36V56.28q11.19-4,18.15.37a9.42,9.42,0,0,1,5,8.85V66c0,2.23-.51,3.82-1.53,4.79a6.83,6.83,0,0,1-4.79,1.44H267.8q-3.44,0-4.92-1.49c-1-1-1.49-2.66-1.49-5V43.1l-11.39,6v17.7A5.78,5.78,0,0,1,248.33,71a7.1,7.1,0,0,1-4.65,1.26H232.94q-3.44,0-4.93-1.49t-1.49-5V43.1l-11.38,6v17.7A5.82,5.82,0,0,1,213.47,71a7.1,7.1,0,0,1-4.65,1.26H198q-3.43,0-4.92-1.49c-1-1-1.49-2.66-1.49-5V35.69l-11.29,6V44a14.82,14.82,0,0,0-6.14-1.26,15.85,15.85,0,0,0-12,5.46A19.5,19.5,0,0,0,157.06,62a19.2,19.2,0,0,0,4.79,13.24,16,16,0,0,0,12.56,5.37,15.09,15.09,0,0,0,9.48-3q4.61,5.61,13,5.6h13a16.75,16.75,0,0,0,10.93-3.52,16.75,16.75,0,0,0,10.93,3.52h13a16.74,16.74,0,0,0,10.92-3.52,16.79,16.79,0,0,0,10.93,3.52h30.89a16.75,16.75,0,0,0,10.93-3.52,16.39,16.39,0,0,0,10.84,3.52h12.46A17.28,17.28,0,0,0,342.22,80q4.61,3.17,11.83,3.16a15.7,15.7,0,0,0,12.78-5.74q4.74-5.73,4.75-15.12t-4.88-15Q361.83,41.56,353.42,41.56ZM175,70.92a5.83,5.83,0,0,1-5-2.4,10.26,10.26,0,0,1-1.76-6.27,10.6,10.6,0,0,1,1.8-6.37A5.73,5.73,0,0,1,175,53.39a8.06,8.06,0,0,1,5.33,2V66.31a20.17,20.17,0,0,0,.09,2.26A6.49,6.49,0,0,1,175,70.92Zm178.65,1.35a5.84,5.84,0,0,1-4.06-1.17,5.08,5.08,0,0,1-1.27-3.89V58.09q0-6,5.06-6a5.87,5.87,0,0,1,5.15,2.66A12.66,12.66,0,0,1,360.38,62Q360.38,72.28,353.69,72.27Z"/></g></g></svg>